HIERARCHY
ROOT Hips
{
	OFFSET 0.000000 0.000000 0.000000
	CHANNELS 6 Xposition Yposition Zposition Zrotation Yrotation Xrotation 
	JOINT LeftUpLeg_virtual
	{
		OFFSET 0.000000 0.000000 0.000000
		CHANNELS 3 Zrotation Yrotation Xrotation
		JOINT LeftUpLeg
		{
			OFFSET 8.479694 -4.795517 -0.379053
			CHANNELS 3 Zrotation Yrotation Xrotation
			JOINT LeftLeg
			{
				OFFSET 0.485052 -32.551468 0.112863
				CHANNELS 3 Zrotation Yrotation Xrotation
				JOINT LeftFoot
				{
					OFFSET 0.438033 -32.635670 -3.012641
					CHANNELS 3 Zrotation Yrotation Xrotation
					JOINT LeftToeBase
					{
						OFFSET 0.970169 -13.225353 11.864223
						CHANNELS 3 Zrotation Yrotation Xrotation
						End Site
						{
							OFFSET 0.000000 0.000000 0.000000
						}
					}
				}
			}
		}
	}
	JOINT RightUpLeg_virtual
	{
		OFFSET 0.000000 0.000000 0.000000
		CHANNELS 3 Zrotation Yrotation Xrotation
		JOINT RightUpLeg
		{
			OFFSET -8.479694 -4.795517 -0.379053
			CHANNELS 3 Zrotation Yrotation Xrotation
			JOINT RightLeg
			{
				OFFSET -0.484100 -32.551483 0.112903
				CHANNELS 3 Zrotation Yrotation Xrotation
				JOINT RightFoot
				{
					OFFSET -0.438985 -32.635651 -3.012681
					CHANNELS 3 Zrotation Yrotation Xrotation
					JOINT RightToeBase
					{
						OFFSET -0.970169 -13.225354 11.864223
						CHANNELS 3 Zrotation Yrotation Xrotation
						End Site
						{
							OFFSET 0.000000 0.000000 0.000000
						}
					}
				}
			}
		}
	}
	JOINT Spine_virtual
	{
		OFFSET 0.000000 0.000000 0.000000
		CHANNELS 3 Zrotation Yrotation Xrotation
		JOINT Spine
		{
			OFFSET 0.000000 7.722015 1.166203
			CHANNELS 3 Zrotation Yrotation Xrotation
			JOINT Spine1
			{
				OFFSET 0.000000 12.024086 0.248766
				CHANNELS 3 Zrotation Yrotation Xrotation
				JOINT Spine2
				{
					OFFSET -0.000000 11.503036 -0.491240
					CHANNELS 3 Zrotation Yrotation Xrotation
					JOINT Neck_virtual
					{
						OFFSET 0.000000 0.000000 0.000000
						CHANNELS 3 Zrotation Yrotation Xrotation
						JOINT Neck
						{
							OFFSET 0.000000 18.430687 -3.123054
							CHANNELS 3 Zrotation Yrotation Xrotation
							JOINT Head
							{
								OFFSET -0.000000 9.051071 1.034021
								CHANNELS 3 Zrotation Yrotation Xrotation
								End Site
								{
									OFFSET 0.000000 0.000000 0.000000
								}
							}
						}
					}
					JOINT LeftShoulder_virtual
					{
						OFFSET 0.000000 0.000000 0.000000
						CHANNELS 3 Zrotation Yrotation Xrotation
						JOINT LeftShoulder
						{
							OFFSET 6.197824 13.665230 -4.064723
							CHANNELS 3 Zrotation Yrotation Xrotation
							JOINT LeftArm
							{
								OFFSET 7.778132 -0.187073 -1.709282
								CHANNELS 3 Zrotation Yrotation Xrotation
								JOINT LeftForeArm
								{
									OFFSET 21.954697 0.000000 -2.041093
									CHANNELS 3 Zrotation Yrotation Xrotation
									JOINT LeftHand
									{
										OFFSET 22.992908 0.000000 -0.870901
										CHANNELS 3 Zrotation Yrotation Xrotation
										End Site
										{
											OFFSET 0.000000 0.000000 0.000000
										}
									}
								}
							}
						}
					}
					JOINT RightShoulder_virtual
					{
						OFFSET 0.000000 0.000000 0.000000
						CHANNELS 3 Zrotation Yrotation Xrotation
						JOINT RightShoulder
						{
							OFFSET -6.197824 13.665230 -4.064723
							CHANNELS 3 Zrotation Yrotation Xrotation
							JOINT RightArm
							{
								OFFSET -7.778132 -0.187073 -1.709282
								CHANNELS 3 Zrotation Yrotation Xrotation
								JOINT RightForeArm
								{
									OFFSET -21.954697 0.000000 -2.041093
									CHANNELS 3 Zrotation Yrotation Xrotation
									JOINT RightHand
									{
										OFFSET -22.992908 0.000000 -0.870901
										CHANNELS 3 Zrotation Yrotation Xrotation
										End Site
										{
											OFFSET 0.000000 0.000000 0.000000
										}
									}
								}
							}
						}
					}
				}
			}
		}
	}
}
MOTION
Frames: 10
Frame Time: 0.033333
25.541454 37.844849 4.536471 -179.806096 -23.777924 -179.959010 35.151794 2.774445 -8.850151 -17.030517 5.230107 -91.550776 10.856901 -11.404357 118.990419 -28.023378 -25.000089 -4.709065 0.000000 0.000000 0.000000 29.414100 8.231794 -5.745665 4.959880 2.502759 -86.819108 -4.479300 -2.241627 133.557259 -12.742513 34.283960 -25.522298 0.000000 0.000000 0.000000 30.468914 9.295245 -11.929226 0.407308 -8.271030 0.749144 -4.667209 -3.074304 13.047568 0.013622 -0.015417 0.055718 -4.726701 -2.366311 14.615078 -2.401275 -9.986240 -5.493730 0.000000 0.000000 0.000000 -1.070757 -1.745808 8.941518 -9.543705 -5.924210 4.481849 -38.086395 -51.629977 27.455998 -38.164488 -86.043390 47.230717 0.000000 0.000000 0.000000 -8.326662 0.268471 8.107737 24.726805 3.010248 4.239071 63.703344 -6.780816 -28.254689 -3.098914 37.413324 -7.349295 0.000000 0.000000 0.000000 
26.269779 36.348896 3.469146 179.869303 -28.660386 -179.884944 34.718972 1.579997 -11.640651 -16.300482 6.510968 -92.424412 10.789737 -12.427862 119.005419 -28.291779 -24.211581 -4.835412 0.000000 0.000000 0.000000 28.511119 6.217011 -7.110761 6.896154 3.340095 -87.025988 -2.905981 -1.929325 133.442799 -11.640355 33.713192 -29.856055 0.000000 0.000000 0.000000 29.087815 9.229484 -15.837566 -1.362178 -8.251291 0.997394 -4.934284 -2.790798 13.287441 0.025290 -0.076097 0.049365 -4.794799 -1.895760 15.061631 -1.986362 -10.049845 -3.494161 0.000000 0.000000 0.000000 -1.256528 -1.564637 9.093593 -10.572885 -5.598882 4.612300 -41.126806 -50.963105 33.412456 -50.579132 -87.346938 59.637284 0.000000 0.000000 0.000000 -8.600040 0.568621 8.316489 23.020794 3.523740 4.950701 70.822607 -10.343813 -24.312222 -4.098345 38.131922 -7.775194 0.000000 0.000000 0.000000 
26.818647 35.124500 2.792919 179.773980 -32.810887 -179.708943 34.387752 0.608859 -15.492080 -15.673425 7.801477 -92.410656 10.875237 -13.275238 119.260977 -27.138155 -22.699633 -4.758124 0.000000 0.000000 0.000000 27.830256 4.193876 -10.231881 9.223613 4.104906 -85.429861 -2.862617 -1.938992 133.873443 -10.445942 31.419734 -31.547227 0.000000 0.000000 0.000000 28.126173 8.608385 -18.901399 -2.648006 -7.926361 1.190843 -4.983719 -2.578166 13.412630 -0.001938 -0.087412 0.083598 -5.011477 -1.713495 15.382197 -1.389910 -10.020547 -1.504914 0.000000 0.000000 0.000000 -1.378305 -1.295428 9.207531 -11.823036 -5.210700 4.654642 -44.358336 -49.777773 38.514843 -74.723765 -88.261672 83.950825 0.000000 0.000000 0.000000 -8.863369 0.866156 8.426915 21.172697 4.451291 5.599854 77.134119 -14.541787 -19.796461 -5.038280 38.847541 -8.241366 0.000000 0.000000 0.000000 
27.018637 34.116261 2.636704 179.875668 -35.958002 -179.805836 34.349380 -0.916018 -17.958055 -15.678889 8.597238 -93.373747 10.320209 -13.442373 120.404651 -28.049955 -22.921302 -3.679113 0.000000 0.000000 0.000000 27.074040 3.359147 -12.453908 12.155946 2.930872 -84.290600 -3.125720 -1.173852 134.606937 -9.417988 28.371446 -33.174208 0.000000 0.000000 0.000000 27.811116 7.811446 -20.829825 -3.612951 -7.517033 1.427211 -5.179913 -2.184506 13.537092 0.023112 -0.036070 0.058098 -4.951735 -1.329706 15.457387 -0.552770 -10.202795 0.466841 0.000000 0.000000 0.000000 -1.484332 -1.060314 9.193447 -12.830745 -5.110192 4.719526 -47.933837 -48.365492 43.420862 -116.992357 -88.514962 126.574306 0.000000 0.000000 0.000000 -8.997951 1.091100 8.408916 19.568851 5.655500 6.265534 82.452131 -18.656619 -15.740311 -5.979065 39.432093 -8.787960 0.000000 0.000000 0.000000 
27.055822 33.268154 2.811648 179.846777 -38.503539 -179.889137 34.641647 -2.451140 -19.890979 -15.861099 9.144514 -94.431443 9.816869 -13.286759 121.548325 -28.479814 -23.188265 -3.039597 0.000000 0.000000 0.000000 26.959628 2.509393 -14.506943 14.073545 1.576695 -83.275312 -2.719959 -0.582463 135.510735 -8.565722 25.853699 -35.444287 0.000000 0.000000 0.000000 27.649490 6.648440 -21.913844 -4.484456 -6.937885 1.576171 -5.067302 -1.944013 13.624751 -0.009822 -0.046071 0.033269 -5.135083 -1.145471 15.472984 0.322924 -10.399128 2.367972 0.000000 0.000000 0.000000 -1.549688 -0.700926 9.196599 -13.424879 -5.216058 4.722351 -51.643614 -46.891656 48.288495 -144.665756 -88.212057 154.828313 0.000000 0.000000 0.000000 -9.169148 1.275542 8.345649 18.248409 7.370025 6.795824 86.726805 -21.837981 -12.744809 -6.653039 39.495364 -9.105582 0.000000 0.000000 0.000000 
27.139887 32.526070 3.239136 179.934777 -40.420014 179.940733 34.701760 -3.261299 -21.701770 -16.065163 9.811043 -94.816044 9.481113 -12.871386 121.896583 -28.140089 -23.323711 -3.283129 0.000000 0.000000 0.000000 27.003447 2.422547 -16.190007 15.561768 0.168502 -82.365709 -2.731022 0.216912 135.088861 -7.977932 22.800631 -34.733725 0.000000 0.000000 0.000000 27.744160 6.185021 -22.264221 -5.158132 -6.307652 1.546458 -5.440287 -1.746738 13.641323 0.023065 -0.170903 0.051022 -5.051266 -0.833062 15.429286 1.037436 -10.699765 4.071741 0.000000 0.000000 0.000000 -1.534863 -0.486677 9.140443 -13.413321 -5.528187 4.749271 -54.765198 -45.309682 52.950925 -156.206235 -87.543293 167.106206 0.000000 0.000000 0.000000 -9.191415 1.452588 8.225112 17.548605 8.991803 7.233247 90.002236 -23.835644 -10.788980 -7.297721 39.556395 -9.459322 0.000000 0.000000 0.000000 
27.331375 31.863886 3.671673 -179.966756 -41.861577 179.694928 34.334241 -3.325979 -22.744885 -16.333518 10.483764 -95.405202 9.371312 -12.146746 122.008024 -27.974435 -23.290704 -3.423427 0.000000 0.000000 0.000000 26.864951 3.612457 -16.982348 16.934518 -1.693626 -82.350997 -2.418128 0.954706 135.254602 -7.471761 20.807579 -35.623528 0.000000 0.000000 0.000000 27.670138 6.224759 -22.142734 -5.850992 -5.918073 1.470607 -5.546671 -1.572769 13.707541 0.025544 -0.059934 0.004705 -5.181906 -1.000650 15.494436 1.590014 -10.923154 5.612545 0.000000 0.000000 0.000000 -1.600320 -0.595540 9.102185 -12.876560 -5.711014 4.938736 -57.159746 -43.272045 57.514134 -168.141226 -86.968170 179.889602 0.000000 0.000000 0.000000 -9.312375 1.573201 8.115644 17.561361 10.596285 7.670296 92.593145 -25.026009 -9.600924 -7.858720 39.706389 -9.705736 0.000000 0.000000 0.000000 
27.781199 31.312057 3.861658 -179.910693 -43.337099 179.228685 33.912842 -2.426081 -23.478321 -16.707356 11.230614 -95.300974 9.403956 -11.136930 121.396613 -28.821749 -23.248939 -2.009673 0.000000 0.000000 0.000000 26.860211 5.320815 -16.921278 17.387727 -2.700211 -82.836363 -2.311704 1.491471 135.428950 -7.477745 18.838080 -38.345010 0.000000 0.000000 0.000000 27.264741 6.741016 -21.694849 -6.566151 -5.754805 1.368485 -5.675565 -1.596864 13.788476 0.068704 -0.122942 -0.019829 -5.358014 -1.098075 15.560868 1.892960 -11.132170 6.979616 0.000000 0.000000 0.000000 -1.651383 -0.524525 9.190031 -11.858819 -6.039422 5.028740 -58.523766 -40.879358 61.337175 -170.247793 -86.444049 -177.126271 0.000000 0.000000 0.000000 -9.403622 1.493529 8.199675 17.947167 12.073141 8.162234 94.197174 -25.731770 -8.592683 -8.219653 40.123755 -9.747875 0.000000 0.000000 0.000000 
28.296000 30.862827 3.969354 -179.833253 -44.333344 179.701239 33.501255 -1.495612 -24.322539 -17.308719 13.118818 -95.987927 8.597340 -9.835529 120.917803 -27.177065 -24.114905 -0.984615 0.000000 0.000000 0.000000 27.390075 5.419700 -15.934225 18.031122 -0.396153 -81.955597 0.874123 1.329364 132.211753 -6.357649 21.166585 -41.573804 0.000000 0.000000 0.000000 26.721911 7.482341 -21.602504 -7.062676 -5.589151 1.024548 -5.744009 -1.590998 13.764900 0.011655 -0.062635 0.002471 -5.547441 -1.060574 15.682502 1.935711 -11.220142 8.039048 0.000000 0.000000 0.000000 -1.738298 -0.423110 9.250497 -10.812898 -6.201027 5.114157 -59.093759 -38.147389 64.175542 -172.307709 -86.115107 -174.237962 0.000000 0.000000 0.000000 -9.492531 1.504157 8.377165 18.555290 13.358997 8.481878 95.144480 -26.631263 -7.632795 -8.630277 40.728872 -9.854762 0.000000 0.000000 0.000000 
28.610529 30.558428 3.984620 -179.465242 -45.152110 179.562122 32.733490 -0.618332 -25.174699 -17.196374 13.907280 -96.028047 8.314684 -8.962035 120.471915 -27.307383 -24.314615 0.814651 0.000000 0.000000 0.000000 27.475686 6.494345 -16.018795 18.902352 -0.207709 -81.544310 1.821390 1.486973 131.087627 -5.977543 20.626002 -43.983263 0.000000 0.000000 0.000000 26.404622 7.825457 -21.506585 -7.381947 -5.465014 0.885614 -5.860223 -1.576048 13.885098 0.001581 0.016696 -0.003020 -5.800676 -1.080610 15.933824 1.842127 -11.324276 8.949091 0.000000 0.000000 0.000000 -1.895279 -0.549803 9.471357 -9.975246 -6.131626 5.135690 -59.176158 -35.447176 66.021790 -172.775263 -86.007859 -173.055656 0.000000 0.000000 0.000000 -9.652038 1.427625 8.685953 19.284257 14.318028 8.844632 95.439941 -27.590284 -6.794914 -8.914993 41.530207 -9.725175 0.000000 0.000000 0.000000 
